<svg xmlns="http://www.w3.org/2000/svg" width="256" height="256" viewBox="0 0 256 256" fill="none">
<rect width="100%" height="100%" fill="white"/>
<g transform="translate(8 10) scale(0.33)">

<g id="c-mark">
  <path d="M 345 90 A 185 185 0 1 0 345 510"
        stroke="#1FB2EA" stroke-width="96" stroke-linecap="round" fill="none"/>
  <path d="M 168 416 C 154 364, 170 320, 226 292 C 203 333, 206 374, 257 422"
        fill="none" stroke="#1FB2EA" stroke-width="28" stroke-linecap="round" stroke-linejoin="round"/>
</g>


<g id="infinity" transform="translate(380 205)">
  <path d="M 40 95 C 85 45, 145 45, 190 95 L 220 127 L 248 98 C 295 49, 356 49, 403 98 C 450 147, 450 208, 403 257 C 356 306, 295 306, 248 257 L 220 228 L 190 257 C 145 307, 85 307, 40 257 C -7 208, -7 144, 40 95 Z"
        fill="#0B2E78"/>
  <path d="M 77 129 C 108 95, 151 95, 183 129 L 220 168 L 256 129 C 289 94, 333 94, 366 129 C 399 164, 399 191, 366 226 C 333 260, 289 260, 256 226 L 220 188 L 183 226 C 151 260, 108 260, 77 226 C 45 191, 45 164, 77 129 Z"
        fill="#FFFFFF"/>
  <path d="M 92 144 C 117 117, 148 117, 173 144 L 220 192 L 267 144 C 292 117, 323 117, 348 144 C 373 171, 373 184, 348 211 C 323 238, 292 238, 267 211 L 220 163 L 173 211 C 148 238, 117 238, 92 211 C 67 184, 67 171, 92 144 Z"
        fill="#1FB2EA"/>
</g>

<g transform="translate(650 170) scale(0.6)">
  <path d="M 40 165 C 40 118, 76 82, 122 82 C 137 45, 174 20, 218 20 C 266 20, 306 49, 320 92 C 362 95, 396 129, 396 171 C 396 216, 360 252, 315 252 L 112 252 C 72 252, 40 221, 40 181 Z"
        fill="#FFFFFF" stroke="#0B2E78" stroke-width="18" stroke-linejoin="round"/>
</g>
</g>
</svg>
